<svg width="20" height="20" viewBox="0 0 20 20" fill="none" xmlns="http://www.w3.org/2000/svg">
<path d="M5.80891 11.5377C5.73267 11.5691 5.66539 11.6188 5.61304 11.6825C5.5607 11.7462 5.52491 11.8219 5.50888 11.9027C5.49284 11.9836 5.49705 12.0672 5.52113 12.146C5.54522 12.2249 5.58842 12.2966 5.64691 12.3547L9.64691 16.3547C9.69335 16.4012 9.74853 16.4382 9.80927 16.4634C9.87002 16.4886 9.93514 16.5016 10.0009 16.5016C10.0667 16.5016 10.1318 16.4886 10.1925 16.4634C10.2533 16.4382 10.3085 16.4012 10.3549 16.3547L14.3549 12.3547C14.4488 12.2608 14.5015 12.1334 14.5015 12.0007C14.5015 11.8679 14.4488 11.7406 14.3549 11.6467C14.261 11.5528 14.1337 11.5 14.0009 11.5C13.8681 11.5 13.7408 11.5528 13.6469 11.6467L10.5009 14.7937V4.00067C10.5009 3.86806 10.4482 3.74089 10.3545 3.64712C10.2607 3.55335 10.1335 3.50067 10.0009 3.50067C9.8683 3.50067 9.74112 3.55335 9.64735 3.64712C9.55358 3.74089 9.50091 3.86806 9.50091 4.00067V14.7937L6.35491 11.6467C6.28496 11.5764 6.1957 11.5286 6.09848 11.5091C6.00126 11.4897 5.90047 11.4997 5.80891 11.5377V11.5377Z" fill="#333030"/>
</svg>
