<svg width="20" height="20" viewBox="0 0 20 20" fill="none" xmlns="http://www.w3.org/2000/svg">
<path d="M8.46392 5.80958C8.43252 5.73335 8.38275 5.66606 8.31906 5.61371C8.25537 5.56137 8.17972 5.52558 8.09885 5.50955C8.01798 5.49351 7.9344 5.49772 7.85555 5.52181C7.7767 5.54589 7.70503 5.58909 7.64692 5.64758L3.64692 9.64758C3.60035 9.69402 3.56341 9.7492 3.5382 9.80994C3.513 9.87069 3.50002 9.93581 3.50002 10.0016C3.50002 10.0673 3.513 10.1325 3.5382 10.1932C3.56341 10.254 3.60035 10.3091 3.64692 10.3556L7.64692 14.3556C7.7408 14.4495 7.86814 14.5022 8.00092 14.5022C8.13369 14.5022 8.26103 14.4495 8.35492 14.3556C8.4488 14.2617 8.50155 14.1344 8.50155 14.0016C8.50155 13.8688 8.4488 13.7415 8.35492 13.6476L5.20792 10.5016H16.0009C16.1335 10.5016 16.2607 10.4489 16.3545 10.3551C16.4482 10.2614 16.5009 10.1342 16.5009 10.0016C16.5009 9.86897 16.4482 9.74179 16.3545 9.64802C16.2607 9.55426 16.1335 9.50158 16.0009 9.50158H5.20792L8.35492 6.35558C8.42517 6.28563 8.47304 6.19637 8.49244 6.09915C8.51185 6.00193 8.50192 5.90114 8.46392 5.80958V5.80958Z" fill="#333030"/>
</svg>
