<svg width="20" height="20" viewBox="0 0 20 20" fill="none" xmlns="http://www.w3.org/2000/svg">
<path d="M16.3022 4.58314H14.0258C13.1546 4.58314 12.4099 4.89227 11.7916 5.51054C11.2015 6.12881 10.9064 6.87354 10.9064 7.74473V9.97892H9.09374V12.6768H10.9064V18.9578H13.6043V12.6768H16.3022V9.97892H13.6043V8.16628C13.6043 7.94145 13.6886 7.74473 13.8572 7.57611C14.0258 7.37939 14.2366 7.28103 14.4895 7.28103H16.3022V4.58314ZM1.00006 2C1.00006 1.44772 1.44778 1 2.00006 1H18.0001C18.5523 1 19.0001 1.44772 19.0001 2V17.9578C19.0001 18.5101 18.5523 18.9578 18.0001 18.9578H2.00006C1.44778 18.9578 1.00006 18.5101 1.00006 17.9578V2Z" fill="black"/>
</svg>
