<svg width="20" height="20" viewBox="0 0 20 20" fill="none" xmlns="http://www.w3.org/2000/svg">
<path fill-rule="evenodd" clip-rule="evenodd" d="M9.96932 4.63102C10.1077 4.62221 10.2491 4.67069 10.3548 4.77646L13.0632 7.48479C13.2584 7.68005 13.2584 7.99663 13.0632 8.19189C12.8679 8.38716 12.5513 8.38716 12.3561 8.19189L10.5 6.33581V11.6301C10.5 11.9062 10.2761 12.1301 10 12.1301C9.72386 12.1301 9.5 11.9062 9.5 11.6301V6.33841L7.64652 8.19189C7.45126 8.38716 7.13468 8.38716 6.93942 8.19189C6.74415 7.99663 6.74415 7.68005 6.93942 7.48479L9.62627 4.79793C9.71151 4.7021 9.83305 4.63927 9.96932 4.63102ZM5.625 11.6301C5.625 11.354 5.40114 11.1301 5.125 11.1301C4.84886 11.1301 4.625 11.354 4.625 11.6301V13.7968C4.625 14.2167 4.79185 14.6194 5.08872 14.9163C5.38569 15.2133 5.78845 15.3801 6.20833 15.3801H13.7917C14.2116 15.3801 14.6143 15.2133 14.9113 14.9163C15.2082 14.6194 15.375 14.2167 15.375 13.7968V11.6301C15.375 11.354 15.1511 11.1301 14.875 11.1301C14.5989 11.1301 14.375 11.354 14.375 11.6301V13.7968C14.375 13.9515 14.3136 14.0998 14.2041 14.2092C14.0947 14.3187 13.9464 14.3801 13.7917 14.3801H6.20833C6.0536 14.3801 5.90524 14.3186 5.79588 14.2093C5.68643 14.0998 5.625 13.9514 5.625 13.7968V11.6301Z" fill="black"/>
</svg>
