<svg width="38" height="24" viewBox="0 0 38 24" fill="none" xmlns="http://www.w3.org/2000/svg">
<path opacity="0.07" d="M35 0H3C1.3 0 0 1.3 0 3V21C0 22.7 1.4 24 3 24H35C36.7 24 38 22.7 38 21V3C38 1.3 36.6 0 35 0Z" fill="black"/>
<path d="M35 1C36.1 1 37 1.9 37 3V21C37 22.1 36.1 23 35 23H3C1.9 23 1 22.1 1 21V3C1 1.9 1.9 1 3 1H35Z" fill="#5A31F4"/>
<path d="M21.382 9.71299C21.382 11.381 20.205 12.571 18.561 12.571H17.012C16.9864 12.5714 16.9615 12.5791 16.9402 12.5933C16.9189 12.6075 16.9022 12.6275 16.892 12.651C16.8854 12.6665 16.882 12.6832 16.882 12.7V14.892C16.882 14.909 16.8786 14.9259 16.8721 14.9416C16.8655 14.9573 16.8559 14.9716 16.8438 14.9836C16.8318 14.9956 16.8174 15.005 16.8017 15.0115C16.7859 15.0179 16.769 15.0211 16.752 15.021H15.668C15.6335 15.021 15.6004 15.0073 15.5761 14.9829C15.5517 14.9585 15.538 14.9255 15.538 14.891V6.98599C15.5376 6.96024 15.545 6.93497 15.5593 6.91353C15.5736 6.8921 15.5941 6.87552 15.618 6.86599C15.6338 6.85936 15.6508 6.85596 15.668 6.85599H18.568C20.205 6.85599 21.382 8.04599 21.382 9.71399V9.71299ZM20.03 9.71299C20.03 8.75499 19.372 8.05499 18.48 8.05499H17.012C16.9949 8.05499 16.978 8.05835 16.9622 8.06489C16.9465 8.07142 16.9321 8.081 16.9201 8.09307C16.908 8.10514 16.8984 8.11947 16.8919 8.13524C16.8853 8.15101 16.882 8.16792 16.882 8.18499V11.235C16.8818 11.2521 16.8851 11.2691 16.8916 11.2849C16.8981 11.3007 16.9078 11.315 16.92 11.327C16.932 11.3391 16.9464 11.3487 16.9622 11.3552C16.978 11.3617 16.9949 11.3651 17.012 11.365H18.48C19.372 11.37 20.03 10.67 20.03 9.71299ZM21.704 13.504C21.6926 13.2478 21.7458 12.9929 21.8589 12.7627C21.972 12.5325 22.1412 12.3345 22.351 12.187C22.774 11.871 23.435 11.707 24.406 11.673L25.439 11.637V11.334C25.439 10.727 25.029 10.471 24.371 10.471C23.713 10.471 23.296 10.702 23.201 11.081C23.1929 11.1076 23.1763 11.1308 23.1537 11.1471C23.1311 11.1634 23.1038 11.1718 23.076 11.171H22.054C22.0259 11.1714 21.9984 11.1626 21.9756 11.146C21.9529 11.1294 21.9362 11.1059 21.928 11.079C21.9226 11.0612 21.9212 11.0424 21.924 11.024C22.076 10.126 22.828 9.44399 24.418 9.44399C26.11 9.44399 26.721 10.227 26.721 11.72V14.892C26.7209 14.9091 26.7173 14.9261 26.7106 14.9419C26.7039 14.9577 26.6941 14.972 26.6818 14.984C26.6696 14.996 26.6551 15.0054 26.6391 15.0118C26.6232 15.0181 26.6061 15.0213 26.589 15.021H25.559C25.5245 15.021 25.4914 15.0073 25.4671 14.9829C25.4427 14.9585 25.429 14.9255 25.429 14.891V14.655C25.4293 14.6354 25.4236 14.6162 25.4127 14.5999C25.4018 14.5837 25.3862 14.5711 25.368 14.564C25.3499 14.5569 25.3302 14.5552 25.3112 14.5591C25.2922 14.563 25.2748 14.5723 25.261 14.586C24.951 14.92 24.453 15.161 23.654 15.161C22.479 15.161 21.704 14.554 21.704 13.504ZM25.439 12.817V12.571L24.1 12.641C23.395 12.677 22.985 12.967 22.985 13.457C22.985 13.901 23.361 14.147 24.019 14.147C24.912 14.147 25.439 13.667 25.439 12.817ZM27.755 17.417V16.498C27.7552 16.4787 27.7598 16.4598 27.7682 16.4425C27.7767 16.4252 27.7889 16.41 27.804 16.398C27.8189 16.3859 27.8363 16.3772 27.855 16.3726C27.8737 16.3679 27.8931 16.3674 27.912 16.371C28.07 16.4 28.23 16.415 28.391 16.415C28.6667 16.4301 28.9396 16.3519 29.1654 16.193C29.3913 16.034 29.5571 15.8037 29.636 15.539L29.703 15.328C29.713 15.2995 29.713 15.2685 29.703 15.24L27.558 9.76899C27.5455 9.73897 27.5448 9.70537 27.5559 9.67483C27.567 9.64429 27.5892 9.61902 27.618 9.60399C27.6371 9.59392 27.6584 9.58876 27.68 9.58899H28.72C28.7467 9.58906 28.7727 9.59722 28.7947 9.6124C28.8166 9.62757 28.8335 9.64905 28.843 9.67399L30.299 13.533C30.308 13.5589 30.3249 13.5813 30.3473 13.5971C30.3697 13.6129 30.3966 13.6213 30.424 13.621C30.4513 13.621 30.478 13.6125 30.5004 13.5967C30.5228 13.581 30.5397 13.5587 30.549 13.533L31.814 9.68499C31.8226 9.65846 31.8394 9.63539 31.8621 9.61919C31.8848 9.60298 31.9121 9.5945 31.94 9.59499H33.016C33.0483 9.59518 33.0794 9.60702 33.1036 9.62833C33.1279 9.64965 33.1436 9.679 33.148 9.71099C33.1504 9.73233 33.1477 9.75394 33.14 9.77399L30.845 15.85C30.317 17.263 29.412 17.623 28.415 17.623C28.2258 17.6282 28.0368 17.606 27.854 17.557C27.8233 17.5495 27.7964 17.5312 27.778 17.5055C27.7597 17.4798 27.7512 17.4484 27.754 17.417H27.755ZM8.56998 6.39999C7.20548 6.38979 5.8884 6.9001 4.88698 7.82699C4.84437 7.86575 4.81777 7.91902 4.81241 7.97637C4.80704 8.03372 4.8233 8.09101 4.85798 8.13699L5.47598 8.97599C5.49601 9.00428 5.52202 9.02781 5.55216 9.04492C5.58231 9.06202 5.61585 9.07227 5.65041 9.07494C5.68497 9.07762 5.71969 9.07264 5.75211 9.06038C5.78452 9.04812 5.81384 9.02887 5.83798 9.00399C6.1979 8.64659 6.62535 8.36438 7.09542 8.17381C7.56549 7.98324 8.06879 7.88812 8.57598 7.89399C10.696 7.89399 11.803 9.47799 11.803 11.044C11.803 12.744 10.64 13.942 8.96798 13.965C7.67598 13.965 6.70198 13.115 6.70198 11.991C6.70309 11.7068 6.76768 11.4264 6.89104 11.1703C7.0144 10.9143 7.19341 10.689 7.41498 10.511C7.46216 10.4723 7.49211 10.4165 7.49829 10.3558C7.50447 10.2951 7.48639 10.2344 7.44798 10.187L6.79798 9.37199C6.77836 9.34693 6.75387 9.32611 6.72598 9.31076C6.6981 9.29541 6.6674 9.28586 6.63573 9.28268C6.60406 9.27951 6.57208 9.28277 6.54171 9.29228C6.51133 9.30178 6.48319 9.31733 6.45898 9.33799C6.06088 9.65733 5.73906 10.0615 5.51698 10.521C5.2957 10.9795 5.18051 11.4819 5.17998 11.991C5.17998 13.926 6.83498 15.443 8.95498 15.455H8.98498C11.502 15.423 13.322 13.571 13.322 11.04C13.322 8.79299 11.655 6.39999 8.56998 6.39999Z" fill="white"/>
</svg>
