<svg width="20" height="20" viewBox="0 0 20 20" fill="none" xmlns="http://www.w3.org/2000/svg">
<g clip-path="url(#clip0_365_3657)">
<path d="M10.1717 0.660806C10.9967 0.660806 13.7942 0.890806 15.1134 3.84497C15.5542 4.83914 15.4492 6.52747 15.3626 7.88414L15.3601 7.93414C15.3501 8.08414 15.3417 8.22164 15.3351 8.35914C15.3976 8.39664 15.5042 8.43414 15.6692 8.43414C15.9192 8.42081 16.2184 8.33414 16.5301 8.18331C16.6676 8.10997 16.8167 8.09664 16.9167 8.09664C17.0684 8.09664 17.2159 8.12081 17.3409 8.17164C17.7159 8.29581 17.9526 8.57081 17.9526 8.86997C17.9651 9.24414 17.6276 9.56914 16.9417 9.84331C16.8676 9.86747 16.7676 9.90581 16.6551 9.94247C16.2801 10.055 15.7059 10.2425 15.5442 10.6175C15.4692 10.8041 15.4934 11.0541 15.6442 11.3408L15.6567 11.3533C15.7067 11.4666 16.9284 14.2491 19.6492 14.6983C19.8617 14.735 20.0117 14.9233 19.9992 15.1225C19.9992 15.185 19.9867 15.2466 19.9617 15.31C19.7617 15.7841 18.9009 16.1333 17.3401 16.3691C17.2909 16.445 17.2401 16.6816 17.2034 16.8441C17.1792 16.9933 17.1417 17.1441 17.0917 17.305C17.0284 17.5308 16.8667 17.6425 16.6292 17.6425H16.6042C16.4917 17.6425 16.3434 17.6166 16.1559 17.5808C15.8559 17.5183 15.5184 17.4683 15.0951 17.4683C14.8451 17.4683 14.5959 17.4808 14.3342 17.53C13.8342 17.6166 13.3984 17.9166 12.8984 18.2666C12.1876 18.7658 11.3767 19.34 10.1534 19.34C10.1034 19.34 10.0542 19.3275 10.0034 19.3275H9.87924C8.65591 19.3275 7.85674 18.765 7.14674 18.2541C6.64758 17.9041 6.22424 17.605 5.72424 17.5175C5.46258 17.48 5.20008 17.4558 4.95091 17.4558C4.50091 17.4558 4.15258 17.53 3.89091 17.58C3.71508 17.6158 3.56508 17.6416 3.44091 17.6416C3.12924 17.6416 3.00508 17.455 2.95508 17.2916C2.90424 17.1316 2.88008 16.9675 2.84258 16.8191C2.80424 16.6683 2.75508 16.4075 2.70424 16.3441C1.10591 16.1591 0.24591 15.8091 0.0467434 15.3225C0.0209101 15.27 0.00341005 15.1975 0.000910052 15.135C-0.0115899 14.9325 0.13841 14.7475 0.35091 14.7108C3.07091 14.2608 4.29258 11.4783 4.34341 11.3608L4.35674 11.3366C4.50674 11.0491 4.54341 10.7991 4.45591 10.6125C4.29341 10.2508 3.71924 10.0641 3.34591 9.93831C3.24508 9.91414 3.14591 9.87664 3.05758 9.83914C2.13508 9.47664 2.01008 9.06414 2.06008 8.77831C2.13508 8.37914 2.62174 8.11747 3.03341 8.11747C3.15508 8.11747 3.25841 8.14164 3.35258 8.17914C3.70258 8.34081 4.01008 8.42914 4.27258 8.42914C4.46758 8.42914 4.59258 8.37914 4.66008 8.34164L4.62174 7.86747C4.54008 6.51247 4.43424 4.82497 4.87758 3.83664C6.16008 0.897473 8.94924 0.672473 9.77258 0.672473L10.1217 0.659973H10.1717V0.660806Z" fill="black"/>
</g>
<defs>
<clipPath id="clip0_365_3657">
<rect width="20" height="20" fill="white"/>
</clipPath>
</defs>
</svg>
